<svg width="29" height="39" viewBox="0 0 29 39" fill="none" xmlns="http://www.w3.org/2000/svg">
<path d="M6.66406 1.125H17.6033C18.642 1.12523 19.638 1.55559 20.3724 2.32142L27.0581 9.29167C27.7927 10.0573 28.2055 11.0957 28.2057 12.1786V35.8333C28.2057 36.3748 27.9994 36.8941 27.6321 37.277C27.2649 37.6599 26.7668 37.875 26.2474 37.875H2.7474C2.22801 37.875 1.7299 37.6599 1.36265 37.277C0.995387 36.8941 0.789062 36.3748 0.789062 35.8333V3.16667C0.789062 2.62518 0.995387 2.10588 1.36265 1.72299C1.7299 1.3401 2.22801 1.125 2.7474 1.125H6.66406Z" stroke="#111827" stroke-linecap="round" stroke-linejoin="round"/>
<path d="M18.4141 1.125V9.29167C18.4141 9.83315 18.6204 10.3525 18.9876 10.7353C19.3549 11.1182 19.853 11.3333 20.3724 11.3333H28.2057" stroke="#111827" stroke-linecap="round" stroke-linejoin="round"/>
<path d="M9.51255 19.5L6.66406 22.5625L9.51255 25.625M19.4822 19.5L22.3307 22.5625L19.4822 25.625M13.7853 25.625L15.9216 19.5" stroke="#111827" stroke-linecap="round" stroke-linejoin="round"/>
</svg>
