<svg width="29" height="27" viewBox="0 0 29 27" fill="none" xmlns="http://www.w3.org/2000/svg">
<path d="M4.81621 18.6042C7.00151 18.6042 8.77304 16.776 8.77304 14.5208C8.77304 12.2657 7.00151 10.4375 4.81621 10.4375C2.63091 10.4375 0.859375 12.2657 0.859375 14.5208C0.859375 16.776 2.63091 18.6042 4.81621 18.6042Z" stroke="#111827"/>
<path d="M21.6365 9.41667C23.8218 9.41667 25.5934 7.5885 25.5934 5.33333C25.5934 3.07817 23.8218 1.25 21.6365 1.25C19.4512 1.25 17.6797 3.07817 17.6797 5.33333C17.6797 7.5885 19.4512 9.41667 21.6365 9.41667Z" stroke="#111827"/>
<path d="M23.6131 25.7497C25.7984 25.7497 27.5699 23.9215 27.5699 21.6663C27.5699 19.4112 25.7984 17.583 23.6131 17.583C21.4278 17.583 19.6562 19.4112 19.6562 21.6663C19.6562 23.9215 21.4278 25.7497 23.6131 25.7497Z" stroke="#111827"/>
<path d="M8.77344 13.0622L18.6655 8.39551M8.77344 15.9788L18.6655 20.6455" stroke="#111827" stroke-linecap="round"/>
</svg>
